<mxfile host="65bd71144e">
    <diagram id="iICUVV8Ak8uVL6akt5hw" name="Page-1">
        <mxGraphModel dx="3440" dy="1160" grid="0" gridSize="10" guides="1" tooltips="1" connect="1" arrows="1" fold="1" page="1" pageScale="1" pageWidth="850" pageHeight="1100" math="0" shadow="0">
            <root>
                <mxCell id="0"/>
                <mxCell id="1" parent="0"/>
                <mxCell id="2" value="" style="rounded=1;whiteSpace=wrap;html=1;" vertex="1" parent="1">
                    <mxGeometry x="20" y="50" width="1400" height="870" as="geometry"/>
                </mxCell>
                <mxCell id="3" value="DefaultVPC" style="text;html=1;strokeColor=default;fillColor=default;align=center;verticalAlign=middle;whiteSpace=wrap;rounded=0;fontSize=30;" vertex="1" parent="1">
                    <mxGeometry x="60" y="30" width="170" height="30" as="geometry"/>
                </mxCell>
                <mxCell id="5" value="" style="rounded=1;whiteSpace=wrap;html=1;fontSize=30;strokeColor=default;fillColor=default;" vertex="1" parent="1">
                    <mxGeometry x="70" y="130" width="520" height="420" as="geometry"/>
                </mxCell>
                <mxCell id="6" value="PublicSubnet" style="text;html=1;strokeColor=default;fillColor=default;align=center;verticalAlign=middle;whiteSpace=wrap;rounded=0;fontSize=30;" vertex="1" parent="1">
                    <mxGeometry x="110" y="110" width="240" height="30" as="geometry"/>
                </mxCell>
                <mxCell id="7" value="" style="rounded=1;whiteSpace=wrap;html=1;fontSize=30;strokeColor=default;fillColor=default;" vertex="1" parent="1">
                    <mxGeometry x="730" y="130" width="520" height="420" as="geometry"/>
                </mxCell>
                <mxCell id="8" value="PrivateSubnet" style="text;html=1;strokeColor=default;fillColor=default;align=center;verticalAlign=middle;whiteSpace=wrap;rounded=0;fontSize=30;" vertex="1" parent="1">
                    <mxGeometry x="790" y="110" width="240" height="30" as="geometry"/>
                </mxCell>
                <mxCell id="30" style="edgeStyle=orthogonalEdgeStyle;html=1;entryX=0;entryY=0.5;entryDx=0;entryDy=0;entryPerimeter=0;fontSize=30;fontColor=#FFFFFF;startArrow=classic;startFill=1;" edge="1" parent="1" source="9" target="12">
                    <mxGeometry relative="1" as="geometry"/>
                </mxCell>
                <mxCell id="31" style="edgeStyle=orthogonalEdgeStyle;html=1;entryX=0.5;entryY=1;entryDx=0;entryDy=0;entryPerimeter=0;fontSize=30;fontColor=#FFFFFF;startArrow=classic;startFill=1;" edge="1" parent="1" source="9" target="11">
                    <mxGeometry relative="1" as="geometry"/>
                </mxCell>
                <mxCell id="9" value="NAT" style="outlineConnect=0;dashed=0;verticalLabelPosition=bottom;verticalAlign=top;align=center;html=1;shape=mxgraph.aws3.vpc_nat_gateway;fillColor=#F58534;gradientColor=none;fontSize=30;strokeColor=default;" vertex="1" parent="1">
                    <mxGeometry x="1105.5" y="880" width="69" height="72" as="geometry"/>
                </mxCell>
                <mxCell id="10" value="Private Route" style="sketch=0;points=[[0,0,0],[0.25,0,0],[0.5,0,0],[0.75,0,0],[1,0,0],[0,1,0],[0.25,1,0],[0.5,1,0],[0.75,1,0],[1,1,0],[0,0.25,0],[0,0.5,0],[0,0.75,0],[1,0.25,0],[1,0.5,0],[1,0.75,0]];outlineConnect=0;fontColor=#FFFFFF;gradientColor=#945DF2;gradientDirection=north;fillColor=#5A30B5;strokeColor=#ffffff;dashed=0;verticalLabelPosition=bottom;verticalAlign=top;align=center;html=1;fontSize=30;fontStyle=0;aspect=fixed;shape=mxgraph.aws4.resourceIcon;resIcon=mxgraph.aws4.route_53;" vertex="1" parent="1">
                    <mxGeometry x="1101" y="511" width="78" height="78" as="geometry"/>
                </mxCell>
                <mxCell id="32" style="edgeStyle=orthogonalEdgeStyle;html=1;entryX=0.5;entryY=1;entryDx=0;entryDy=0;entryPerimeter=0;fontSize=30;fontColor=#FFFFFF;startArrow=classic;startFill=1;" edge="1" parent="1" source="11" target="10">
                    <mxGeometry relative="1" as="geometry"/>
                </mxCell>
                <mxCell id="11" value="Private RouteTable" style="outlineConnect=0;dashed=0;verticalLabelPosition=bottom;verticalAlign=top;align=center;html=1;shape=mxgraph.aws3.route_table;fillColor=#F58536;gradientColor=none;fontSize=30;strokeColor=default;" vertex="1" parent="1">
                    <mxGeometry x="1104" y="730" width="75" height="69" as="geometry"/>
                </mxCell>
                <mxCell id="12" value="NAT EIP" style="outlineConnect=0;dashed=0;verticalLabelPosition=bottom;verticalAlign=top;align=center;html=1;shape=mxgraph.aws3.elastic_ip;fillColor=#F58534;gradientColor=none;fontSize=30;fontColor=#FFFFFF;strokeColor=default;" vertex="1" parent="1">
                    <mxGeometry x="1210" y="905.5" width="76.5" height="21" as="geometry"/>
                </mxCell>
                <mxCell id="13" value="DBSecGroup&#10;- SSH -&gt; source: DefaultVPC&#10;- 5432 -&gt; source: DefaultVPC" style="rounded=1;arcSize=10;dashed=1;strokeColor=#ff0000;fillColor=none;gradientColor=none;dashPattern=8 4;strokeWidth=2;fontSize=30;fontColor=#FFFFFF;" vertex="1" parent="1">
                    <mxGeometry x="1500" y="120" width="420" height="199.5" as="geometry"/>
                </mxCell>
                <mxCell id="15" value="WebSecGroup&#10;- SSH -&gt; source: DefaultVPC&#10;- 80 -&gt; source: DefaultVPC&#10;- 443 -&gt; source: DefaultVPC" style="rounded=1;arcSize=10;dashed=1;strokeColor=#ff0000;fillColor=none;gradientColor=none;dashPattern=8 4;strokeWidth=2;fontSize=30;fontColor=#FFFFFF;" vertex="1" parent="1">
                    <mxGeometry x="1510" y="370" width="420" height="199.5" as="geometry"/>
                </mxCell>
                <mxCell id="18" style="edgeStyle=none;html=1;fontSize=30;fontColor=#FFFFFF;startArrow=classic;startFill=1;" edge="1" parent="1" source="16" target="17">
                    <mxGeometry relative="1" as="geometry"/>
                </mxCell>
                <mxCell id="16" value="DBInstance" style="outlineConnect=0;dashed=0;verticalLabelPosition=bottom;verticalAlign=top;align=center;html=1;shape=mxgraph.aws3.ec2;fillColor=#F58534;gradientColor=none;fontSize=30;fontColor=#FFFFFF;strokeColor=default;" vertex="1" parent="1">
                    <mxGeometry x="800" y="210" width="76.5" height="93" as="geometry"/>
                </mxCell>
                <mxCell id="17" value="DBEbs" style="outlineConnect=0;dashed=0;verticalLabelPosition=bottom;verticalAlign=top;align=center;html=1;shape=mxgraph.aws3.volume;fillColor=#E05243;gradientColor=none;fontSize=30;fontColor=#FFFFFF;strokeColor=default;" vertex="1" parent="1">
                    <mxGeometry x="963.75" y="219" width="52.5" height="75" as="geometry"/>
                </mxCell>
                <mxCell id="19" value="DBSecGroup" style="text;html=1;strokeColor=default;fillColor=default;align=center;verticalAlign=middle;whiteSpace=wrap;rounded=0;fontSize=30;fontColor=#FFFFFF;" vertex="1" parent="1">
                    <mxGeometry x="780" y="189" width="270" height="30" as="geometry"/>
                </mxCell>
                <mxCell id="23" style="edgeStyle=none;html=1;entryX=0;entryY=0.5;entryDx=0;entryDy=0;entryPerimeter=0;fontSize=30;fontColor=#FFFFFF;startArrow=classic;startFill=1;" edge="1" parent="1" source="20" target="22">
                    <mxGeometry relative="1" as="geometry"/>
                </mxCell>
                <mxCell id="20" value="WebServer" style="outlineConnect=0;dashed=0;verticalLabelPosition=bottom;verticalAlign=top;align=center;html=1;shape=mxgraph.aws3.ec2;fillColor=#F58534;gradientColor=none;fontSize=30;fontColor=#FFFFFF;strokeColor=default;" vertex="1" parent="1">
                    <mxGeometry x="180" y="240" width="76.5" height="93" as="geometry"/>
                </mxCell>
                <mxCell id="21" value="WebSecGroup" style="text;html=1;strokeColor=default;fillColor=default;align=center;verticalAlign=middle;whiteSpace=wrap;rounded=0;fontSize=30;fontColor=#FFFFFF;" vertex="1" parent="1">
                    <mxGeometry x="95" y="219" width="270" height="30" as="geometry"/>
                </mxCell>
                <mxCell id="22" value="Web EIP" style="outlineConnect=0;dashed=0;verticalLabelPosition=bottom;verticalAlign=top;align=center;html=1;shape=mxgraph.aws3.elastic_ip;fillColor=#F58534;gradientColor=none;fontSize=30;fontColor=#FFFFFF;strokeColor=default;" vertex="1" parent="1">
                    <mxGeometry x="340" y="276" width="76.5" height="21" as="geometry"/>
                </mxCell>
                <mxCell id="27" style="edgeStyle=none;html=1;entryX=0.5;entryY=1;entryDx=0;entryDy=0;entryPerimeter=0;fontSize=30;fontColor=#FFFFFF;startArrow=classic;startFill=1;" edge="1" parent="1" source="24" target="25">
                    <mxGeometry relative="1" as="geometry"/>
                </mxCell>
                <mxCell id="24" value="Int Gateway" style="outlineConnect=0;dashed=0;verticalLabelPosition=bottom;verticalAlign=top;align=center;html=1;shape=mxgraph.aws3.internet_gateway;fillColor=#F58534;gradientColor=none;fontSize=30;fontColor=#FFFFFF;strokeColor=default;" vertex="1" parent="1">
                    <mxGeometry x="148" y="865" width="102" height="102" as="geometry"/>
                </mxCell>
                <mxCell id="28" style="edgeStyle=orthogonalEdgeStyle;html=1;entryX=0.5;entryY=1;entryDx=0;entryDy=0;entryPerimeter=0;fontSize=30;fontColor=#FFFFFF;startArrow=classic;startFill=1;" edge="1" parent="1" source="25" target="26">
                    <mxGeometry relative="1" as="geometry"/>
                </mxCell>
                <mxCell id="25" value="Public RouteTable" style="outlineConnect=0;dashed=0;verticalLabelPosition=bottom;verticalAlign=top;align=center;html=1;shape=mxgraph.aws3.route_table;fillColor=#F58536;gradientColor=none;fontSize=30;strokeColor=default;" vertex="1" parent="1">
                    <mxGeometry x="161.5" y="700" width="75" height="69" as="geometry"/>
                </mxCell>
                <mxCell id="26" value="Public Route" style="sketch=0;points=[[0,0,0],[0.25,0,0],[0.5,0,0],[0.75,0,0],[1,0,0],[0,1,0],[0.25,1,0],[0.5,1,0],[0.75,1,0],[1,1,0],[0,0.25,0],[0,0.5,0],[0,0.75,0],[1,0.25,0],[1,0.5,0],[1,0.75,0]];outlineConnect=0;fontColor=#FFFFFF;gradientColor=#945DF2;gradientDirection=north;fillColor=#5A30B5;strokeColor=#ffffff;dashed=0;verticalLabelPosition=bottom;verticalAlign=top;align=center;html=1;fontSize=30;fontStyle=0;aspect=fixed;shape=mxgraph.aws4.resourceIcon;resIcon=mxgraph.aws4.route_53;" vertex="1" parent="1">
                    <mxGeometry x="160" y="491.5" width="78" height="78" as="geometry"/>
                </mxCell>
            </root>
        </mxGraphModel>
    </diagram>
</mxfile>